<?xml version="1.0" encoding="UTF-8" standalone="no"?>
<svg
   width="128"
   height="128"
   viewBox="0 0 128 128"
   fill="none"
   version="1.1"
   id="svg9"
   sodipodi:docname="dalle-dark.svg"
   inkscape:version="1.4.2 (f4327f4, 2025-05-13)"
   xmlns:inkscape="http://www.inkscape.org/namespaces/inkscape"
   xmlns:sodipodi="http://sodipodi.sourceforge.net/DTD/sodipodi-0.dtd"
   xmlns="http://www.w3.org/2000/svg"
   xmlns:svg="http://www.w3.org/2000/svg">
  <defs
     id="defs9" />
  <sodipodi:namedview
     id="namedview9"
     pagecolor="#505050"
     bordercolor="#eeeeee"
     borderopacity="1"
     inkscape:showpageshadow="0"
     inkscape:pageopacity="0"
     inkscape:pagecheckerboard="0"
     inkscape:deskcolor="#505050"
     inkscape:zoom="3.4913295"
     inkscape:cx="161.68626"
     inkscape:cy="52.558775"
     inkscape:window-width="2560"
     inkscape:window-height="1013"
     inkscape:window-x="-4"
     inkscape:window-y="-4"
     inkscape:window-maximized="1"
     inkscape:current-layer="svg9" />
  <path
     fill-rule="evenodd"
     clip-rule="evenodd"
     d="M 45.143707,18.6521 39.54766,16.171957 c -0.422041,-0.190736 -0.422041,-0.790304 0,-0.981074 L 45.048359,12.7926 c 1.334295,-0.585957 2.382776,-1.635201 2.968222,-2.9706171 l 2.396364,-5.5051638 c 0.190581,-0.422426 0.789615,-0.422426 0.980311,0 l 2.39625,5.5051638 c 0.58556,1.3354161 1.633927,2.3846601 2.968222,2.9706171 l 5.500699,2.398283 c 0.422041,0.19077 0.422041,0.790338 0,0.981074 l -5.500699,2.398317 c -1.334295,0.585923 -2.382662,1.635258 -2.968222,2.970641 l -2.39625,5.491581 c -0.190696,0.435985 -0.78973,0.422385 -0.980311,0 L 48.098226,21.63634 C 47.526368,20.300843 46.464413,19.238023 45.143707,18.6521 Z m -18.042618,37.00992 -3.553667,-8.257771 0.02729,0.01371 C 22.689753,45.387518 21.083117,43.752375 19.05435,42.852977 l -8.564186,-3.788211 c -0.6535483,-0.286162 -0.6535483,-1.212758 0,-1.49892 l 8.414416,-3.679187 c 2.028722,-0.885684 3.648946,-2.507342 4.534022,-4.537672 l 3.662489,-8.407595 c 0.285928,-0.654148 1.211885,-0.654148 1.497814,0 l 3.662489,8.407595 c 0.885077,2.03033 2.505301,3.651988 4.533978,4.537672 l 8.400864,3.665587 c 0.653501,0.286162 0.653501,1.212759 0,1.49892 l -8.400864,3.665588 c -2.028677,0.885683 -3.648901,2.507227 -4.533978,4.537671 l -3.662489,8.407595 c -0.285929,0.654149 -1.211886,0.654149 -1.497814,0 z M 101.89288,19.783375 H 71.148932 c -1.878975,0 -3.403966,1.526233 -3.403966,3.40674 0,1.880392 1.524991,3.406625 3.403966,3.406625 h 30.743948 c 5.13302,0 9.29942,4.169798 9.29942,9.306992 v 44.422921 l -8.72757,-7.072327 c -0.27211,-0.217707 -0.55769,-0.435528 -0.84328,-0.653349 l -9.1e-4,-6.86e-4 c -0.55827,-0.408785 -1.14372,-0.803972 -1.742753,-1.171845 -0.299631,-0.19085 -0.612737,-0.367987 -0.912254,-0.531524 -0.381276,-0.204336 -0.762552,-0.408786 -1.143714,-0.599522 -0.871489,-0.4361 -1.770039,-0.790373 -2.682293,-1.103734 -0.31322,-0.109024 -0.612737,-0.20445 -0.925842,-0.299761 -3.594547,-1.076534 -7.393263,-1.321783 -11.110334,-0.708661 -0.136113,0.02731 -0.268914,0.05108 -0.401601,0.07497 -0.132802,0.02389 -0.265489,0.04766 -0.401717,0.07497 -0.803317,0.149823 -1.593047,0.354273 -2.369073,0.599522 -0.776141,0.245249 -1.552168,0.53141 -2.328308,0.858485 -0.503687,0.218049 -1.007488,0.449698 -1.4977,0.694947 -0.503801,0.258962 -0.993898,0.531524 -1.470408,0.817686 L 60.48793,79.79513 c -0.340396,0.20445 -0.694381,0.395187 -1.048366,0.586037 -2.845697,1.458007 -6.04538,2.098442 -9.231359,1.866793 -0.789729,-0.06811 -1.565756,-0.177137 -2.341897,-0.340674 -0.163404,-0.0136 -0.326808,-0.05451 -0.490097,-0.109025 -0.31322,-0.06811 -0.612737,-0.149823 -0.925957,-0.245249 l -2.246549,-0.66775 -4.16629,-1.239957 c -1.143714,-0.340674 -2.314719,-0.599637 -3.472022,-0.763174 -3.036278,-0.449584 -6.099733,-0.31336 -9.067955,0.395187 -0.912253,0.20445 -1.810919,0.477012 -2.695881,0.803972 -0.884963,0.313475 -1.756451,0.694947 -2.614237,1.117447 l -1.511277,0.763059 V 67.026998 c 0,-1.880506 -1.524932,-3.406625 -3.403884,-3.406625 -1.878942,0 -3.403887,1.526119 -3.403887,3.406625 v 20.439979 c 0,0 0,0.149938 0.01361,0.21805 v 20.194613 c 0,8.88461 7.216305,16.12036 16.107153,16.12036 H 101.90647 C 110.78384,124 118,116.76425 118,107.87964 V 35.903732 c 0,-8.898206 -7.21627,-16.120357 -16.10712,-16.120357 z M 62.570505,60.689161 c 0,6.291668 -5.096129,11.391948 -11.382561,11.391948 -6.286431,0 -11.382674,-5.10028 -11.382674,-11.391948 0,-6.291554 5.096243,-11.391835 11.382674,-11.391835 6.286432,0 11.382561,5.100281 11.382561,11.391835 z"
     fill="#000000"
     id="path1"
     style="stroke-width:1.14235;fill:#f2f2f2" />
</svg>
