<svg version="1.1" viewBox="0 0 512 512" xmlns="http://www.w3.org/2000/svg">
 <rect x="11" y="11" width="490" height="490" rx="28.711" fill="#f6f5f4" stroke-width=".95703"/>
 <g fill="#157b7f" stroke-width="16.2">
  <path d="m256 175.9c-44.142 0-80.1 35.958-80.1 80.1s35.958 80.1 80.1 80.1 80.1-35.958 80.1-80.1-35.958-80.1-80.1-80.1zm0 16.199c35.387 0 63.9 28.513 63.9 63.9s-28.513 63.9-63.9 63.9-63.9-28.513-63.9-63.9 28.513-63.9 63.9-63.9z" stop-color="#000000"/>
  <path d="m96 255.9c-22.051 0-40.1 18.049-40.1 40.1s18.049 40.1 40.1 40.1c22.051 0 40.1-18.049 40.1-40.1s-18.049-40.1-40.1-40.1zm0 16.199c13.296 0 23.9 10.605 23.9 23.9s-10.605 23.9-23.9 23.9c-13.296 0-23.9-10.605-23.9-23.9s10.605-23.9 23.9-23.9z" stop-color="#000000"/>
  <path d="m416 255.9c-22.051 0-40.1 18.049-40.1 40.1s18.049 40.1 40.1 40.1 40.1-18.049 40.1-40.1-18.049-40.1-40.1-40.1zm0 16.199c13.296 0 23.9 10.605 23.9 23.9s-10.605 23.9-23.9 23.9-23.9-10.605-23.9-23.9 10.605-23.9 23.9-23.9z" stop-color="#000000"/>
  <path d="m186.57 253.63c-24.996 4.4891-43.977 10.362-67.59 19.857l6.043 15.031c22.987-9.2443 40.406-14.632 64.41-18.943zm138.86 0-2.8633 15.945c24.004 4.3109 41.423 9.6991 64.41 18.943l6.043-15.031c-23.613-9.4957-42.594-15.368-67.59-19.857z" stop-color="#000000"/>
 </g>
 <circle cx="256" cy="256" r="32" fill="#157b7f"/>
</svg>
