<svg viewBox="0 0 512 512" xmlns="http://www.w3.org/2000/svg" fill-rule="evenodd" clip-rule="evenodd" stroke-linejoin="round" stroke-miterlimit="2"><path d="M2.368 219.093A260.486 260.486 0 000 244.864h388.907a44.635 44.635 0 00-5.035-7.381c-66.475-85.888-102.25-78.443-153.387-80.64-17.066-.683-28.65-.982-96.533-.982-36.352 0-75.84.107-114.325.214-4.971 13.44-9.771 26.453-12.118 37.056h199.296v25.962H2.347h.021zm389.59 51.755H.213c.427 6.933 1.067 13.76 2.006 20.501h361.685c16.128 0 25.152-9.152 28.075-20.48l-.021-.02zM22.507 362.155S82.453 509.398 255.723 512c103.552 0 192.533-61.504 232.96-149.845H22.507z"/><path d="M255.723 0C160 0 76.65 52.587 32.66 130.304c34.368-.064 101.334-.107 101.334-.107h.021v-.02c79.147 0 82.09.34 97.557.98l9.6.363c33.323 1.11 74.326 4.693 106.582 29.099 17.493 13.226 42.773 42.453 57.856 63.253 13.93 19.243 17.92 41.387 8.448 62.592-8.704 19.477-27.456 31.104-50.176 31.104H8.32s2.133 8.96 5.29 18.88h485.334c8.619-25.92 12.992-53.035 13.014-80.341C512 114.667 397.29 0 255.744 0h-.021z"/></svg>