<svg version="1.1" viewBox="0 0 128 128" xmlns="http://www.w3.org/2000/svg">
 <g transform="translate(4.307 30.5)" fill="#fff" stroke-linecap="round" stroke-linejoin="round">
  <path d="m7 24c-3.4333 0-5.9199 2.5678-6.1191 5.3574-0.09963 1.3948 0.37832 2.8982 1.4863 3.9805 1.108 1.0822 2.7439 1.6621 4.6328 1.6621h9c0.71667 0 1.0002 0.20104 1.2754 0.53125 0.27517 0.33021 0.47461 0.88542 0.47461 1.4688s-0.19944 1.1385-0.47461 1.4688c-0.27517 0.33021-0.55872 0.53125-1.2754 0.53125h-14a2 2 0 0 0-2 2 2 2 0 0 0 2 2h14c1.7833 0 3.3748-0.79896 4.3496-1.9688 0.97483-1.1698 1.4004-2.6146 1.4004-4.0312s-0.42556-2.8615-1.4004-4.0312c-0.97483-1.1698-2.5663-1.9688-4.3496-1.9688h-9c-1.1111 0-1.6002-0.29513-1.8359-0.52539-0.23575-0.23026-0.32029-0.47686-0.29492-0.83203 0.050739-0.71035 0.56419-1.6426 2.1309-1.6426h13a2 2 0 0 0 2-2 2 2 0 0 0-2-2z" stop-color="#000000"/>
  <path d="m34.941 24.234a2 2 0 0 0-2.707 0.82422l-8 15a2 2 0 0 0 0.82422 2.707 2 2 0 0 0 2.707-0.82422l8-15a2 2 0 0 0-0.82422-2.707z" stop-color="#000000"/>
  <path d="m33.059 24.234a2 2 0 0 0-0.82422 2.707l8 15a2 2 0 0 0 2.707 0.82422 2 2 0 0 0 0.82422-2.707l-8-15a2 2 0 0 0-2.707-0.82422z" stop-color="#000000"/>
  <path d="m42 24a2 2 0 0 0-2 2 2 2 0 0 0 2 2h20a2 2 0 0 0 2-2 2 2 0 0 0-2-2z" stop-color="#000000"/>
  <path d="m52.133 24.004a2 2 0 0 0-2.1289 1.8633l-1 15a2 2 0 0 0 1.8633 2.1289 2 2 0 0 0 2.1289-1.8633l1-15a2 2 0 0 0-1.8633-2.1289z" stop-color="#000000"/>
  <path d="m74.316 24.494a2 2 0 0 0-2.8223 0.18945 2 2 0 0 0 0.18945 2.8223l6.293 5.5059-7.3047 6.4941a2 2 0 0 0-0.16602 2.8223 2 2 0 0 0 2.8223 0.16602l9-8a2.0002 2.0002 0 0 0-0.01172-3z" stop-color="#000000"/>
  <path d="m92.133 24.004a2 2 0 0 0-2.1289 1.8633l-1 15a2 2 0 0 0 1.8633 2.1289 2 2 0 0 0 2.1289-1.8633l1-15a2 2 0 0 0-1.8633-2.1289z" stop-color="#000000"/>
  <path d="m100 24a2 2 0 0 0-2 2 2 2 0 0 0 2 2h14c0.71667 0 0.85881 0.15642 1.0566 0.42773 0.19784 0.27132 0.36147 0.82008 0.32227 1.4473s-0.28491 1.2815-0.57227 1.6543-0.47331 0.4707-0.80664 0.4707h-14a2.0002 2.0002 0 0 0-1.9805 1.7168l-1 7a2 2 0 0 0 1.6973 2.2637 2 2 0 0 0 2.2637-1.6973l0.75391-5.2832h12.266c1.6667 0 3.1057-0.90209 3.9746-2.0293s1.3107-2.4729 1.3965-3.8457-0.18807-2.8241-1.084-4.0527c-0.89592-1.2287-2.5038-2.0723-4.2871-2.0723z" stop-color="#000000"/>
 </g>
</svg>
