<svg width="578.89" height="210.18" version="1.1" viewBox="0 0 153.16 55.609" xmlns="http://www.w3.org/2000/svg">
 <defs>
  <clipPath id="clipPath170">
   <path transform="translate(-246.46 -163.59)" d="M 0,595.276 H 841.89 V 0 H 0 Z"/>
  </clipPath>
  <clipPath id="clipPath172">
   <path transform="translate(-296.8 -138.46)" d="M 0,595.276 H 841.89 V 0 H 0 Z"/>
  </clipPath>
  <clipPath id="clipPath174">
   <path transform="translate(-347.21 -163.59)" d="M 0,595.276 H 841.89 V 0 H 0 Z"/>
  </clipPath>
  <clipPath id="clipPath176">
   <path transform="translate(-410.73 -163.59)" d="M 0,595.276 H 841.89 V 0 H 0 Z"/>
  </clipPath>
  <clipPath id="clipPath178">
   <path transform="translate(-453.65 -138)" d="M 0,595.276 H 841.89 V 0 H 0 Z"/>
  </clipPath>
  <clipPath id="clipPath180">
   <path transform="translate(-559.15 -148.15)" d="M 0,595.276 H 841.89 V 0 H 0 Z"/>
  </clipPath>
  <clipPath id="clipPath182">
   <path transform="translate(-612.63 -150.64)" d="M 0,595.276 H 841.89 V 0 H 0 Z"/>
  </clipPath>
  <clipPath id="clipPath184">
   <path transform="translate(-501.41 -149.76)" d="M 0,595.276 H 841.89 V 0 H 0 Z"/>
  </clipPath>
  <clipPath id="clipPath186">
   <path transform="translate(-269.46 -210.78)" d="M 0,595.276 H 841.89 V 0 H 0 Z"/>
  </clipPath>
  <clipPath id="clipPath188">
   <path transform="translate(-630.06 -210.78)" d="M 0,595.276 H 841.89 V 0 H 0 Z"/>
  </clipPath>
  <clipPath id="clipPath190">
   <path transform="translate(-548 -210.78)" d="M 0,595.276 H 841.89 V 0 H 0 Z"/>
  </clipPath>
  <clipPath id="clipPath192">
   <path transform="translate(-445.25 -235.42)" d="M 0,595.276 H 841.89 V 0 H 0 Z"/>
  </clipPath>
  <clipPath id="clipPath194">
   <path transform="translate(-468.64 -275.41)" d="M 0,595.276 H 841.89 V 0 H 0 Z"/>
  </clipPath>
  <clipPath id="clipPath196">
   <path transform="translate(-408.5 -279.11)" d="M 0,595.276 H 841.89 V 0 H 0 Z"/>
  </clipPath>
  <clipPath id="clipPath198">
   <path transform="translate(-368.68 -288.26)" d="M 0,595.276 H 841.89 V 0 H 0 Z"/>
  </clipPath>
 </defs>
 <g transform="translate(-30.31 -33.699)">
  <g>
   <path transform="matrix(.35278 0 0 -.35278 45.281 78.205)" d="m0 0c-1.725 0-3.124-1.399-3.124-3.124v-17.185l-15.977 19.033c-0.678 0.809-1.68 1.276-2.736 1.276-1.972 0-3.572-1.599-3.572-3.572v-24.089c0-1.726 1.399-3.124 3.125-3.124 1.725 0 3.124 1.398 3.124 3.124v16.633l15.971-18.512c0.683-0.791 1.676-1.245 2.721-1.245 1.984 0 3.592 1.608 3.592 3.592v24.069c0 1.725-1.398 3.124-3.124 3.124" clip-path="url(#clipPath170)"/>
   <path transform="matrix(.35278 0 0 -.35278 63.039 87.072)" d="m0 0h-14.313v6.985h12.935c1.535 0 2.779 1.245 2.779 2.78s-1.244 2.78-2.779 2.78h-12.935v6.937h14.221c1.561 0 2.826 1.266 2.825 2.826v1e-3c0 1.561-1.265 2.826-2.826 2.826h-17.428c-1.679 0-3.04-1.362-3.04-3.041v-24.697c0-1.683 1.364-3.048 3.048-3.048h17.513c1.561 0 2.825 1.265 2.825 2.825v1e-3c0 1.56-1.264 2.825-2.825 2.825" clip-path="url(#clipPath172)"/>
   <path transform="matrix(.35278 0 0 -.35278 80.82 78.205)" d="m0 0h-21.089c-1.56 0-2.826-1.265-2.826-2.826s1.266-2.826 2.826-2.826h7.42v-22.009c0-1.726 1.399-3.124 3.125-3.124 1.725 0 3.124 1.398 3.124 3.124v22.009h7.42c1.561 0 2.826 1.265 2.826 2.826s-1.265 2.826-2.826 2.826" clip-path="url(#clipPath174)"/>
   <path transform="matrix(.35278 0 0 -.35278 103.23 78.205)" d="m0 0c-1.411 0-2.648-0.941-3.025-2.301l-5.244-18.928-5.359 18.34c-0.5 1.712-2.07 2.889-3.853 2.889-1.784 0-3.354-1.177-3.854-2.889l-5.359-18.34-5.248 18.944c-0.374 1.35-1.603 2.285-3.004 2.285-2.077 0-3.574-1.994-2.993-3.989l6.869-23.6c0.551-1.894 2.287-3.196 4.259-3.196 1.975 0 3.711 1.304 4.261 3.201l5.091 17.567 5.045-17.54c0.55-1.912 2.299-3.228 4.288-3.228 1.984 0 3.73 1.31 4.285 3.215l6.855 23.554c0.585 2.008-0.922 4.016-3.014 4.016" clip-path="url(#clipPath176)"/>
   <path transform="matrix(.35278 0 0 -.35278 118.37 87.234)" d="m0 0c-5.558 0-9.924 4.273-9.924 10.155 0 5.881 4.366 10.245 9.924 10.245 5.56 0 9.926-4.364 9.926-10.245 0-5.882-4.366-10.155-9.926-10.155m0 26.282c-9.097 0-16.218-7.168-16.218-16.127 0-8.96 7.121-16.036 16.218-16.036 9.099 0 16.22 7.076 16.22 16.036 0 8.959-7.121 16.127-16.22 16.127" clip-path="url(#clipPath178)"/>
   <path transform="matrix(.35278 0 0 -.35278 155.59 83.651)" d="m0 0 9.773 10.663c1.676 1.828 0.379 4.776-2.101 4.776-0.791 0-1.546-0.329-2.086-0.907l-11.099-11.913h-1.058v9.695c0 1.726-1.399 3.125-3.124 3.125-1.726 0-3.125-1.399-3.125-3.125v-24.536c0-1.725 1.399-3.124 3.125-3.124 1.725 0 3.124 1.399 3.124 3.124v9.19h1.563l10.834-11.387c0.564-0.592 1.345-0.927 2.162-0.927 2.648 0 3.984 3.191 2.126 5.078z" clip-path="url(#clipPath180)"/>
   <path transform="matrix(.35278 0 0 -.35278 174.46 82.776)" d="m0 0-6.616 1.333c-2.39 0.459-3.078 1.561-3.078 3.124 0 2.067 1.883 3.813 5.008 3.813 2.309 0 4.308-1.059 5.357-2.811 0.653-1.09 1.845-1.734 3.09-1.477l0.386 0.08c1.989 0.409 3.065 2.702 1.957 4.404-2.128 3.265-5.963 5.18-10.653 5.18-7.214 0-11.716-3.859-11.716-9.373 0-6.019 4.411-8.041 8.086-8.822l6.525-1.241c2.758-0.55 3.584-1.608 3.584-3.353 0-2.207-1.884-3.906-5.467-3.906-2.641 0-4.756 0.866-5.988 2.798-0.79 1.239-2.184 1.95-3.623 1.658-2.341-0.474-3.565-3.22-2.175-5.162 2.287-3.198 6.533-4.762 11.189-4.762 7.305 0 12.222 3.721 12.222 9.695 0 4.779-3.079 7.765-8.088 8.822" clip-path="url(#clipPath182)"/>
   <path transform="matrix(.35278 0 0 -.35278 135.22 83.084)" d="m0 0v8.179h8.5c2.895 0 4.824-1.655 4.824-4.09s-1.929-4.089-4.824-4.089zm12.12-5.195c4.546 1.182 7.408 4.613 7.408 9.284 0 5.835-4.411 9.742-11.028 9.742h-11.71c-1.678 0-3.039-1.361-3.039-3.039v-24.622c0-1.725 1.399-3.124 3.124-3.124 1.726 0 3.125 1.399 3.125 3.124v8.179h3.262l6e-3 -6e-3h1.681l8.902-9.909c0.794-0.884 1.926-1.388 3.114-1.388 2.217 0 3.385 2.628 1.898 4.274z" clip-path="url(#clipPath184)"/>
   <path transform="matrix(.35278 0 0 -.35278 53.392 61.558)" d="m0 0h-40.299l22.567 30.703 24.338 33.116c2.853 3.883 2.02 9.345-1.863 12.201-1.45 1.065-3.12 1.595-4.791 1.667h-57.08c-4.495 0-8.139-3.645-8.139-8.141 0-4.494 3.644-8.139 8.139-8.139h40.298l-22.566-30.704-24.339-33.114c-2.853-3.885-2.02-9.346 1.864-12.201 1.45-1.066 3.118-1.596 4.79-1.666h57.081c4.495 0 8.139 3.643 8.139 8.14 0 4.494-3.644 8.138-8.139 8.138" clip-path="url(#clipPath186)"/>
   <path transform="matrix(.35278 0 0 -.35278 180.6 61.559)" d="m0 0h-35.768v70.193c0 4.822-3.905 8.727-8.727 8.727-4.821 0-8.728-3.905-8.728-8.727v-77.745c0-0.1 0.027-0.195 0.03-0.293-3e-3 -0.102-0.03-0.193-0.03-0.295 0-4.495 3.645-8.14 8.141-8.14h45.082c4.496 0 8.14 3.645 8.14 8.14s-3.644 8.14-8.14 8.14" clip-path="url(#clipPath188)"/>
   <path transform="matrix(.35278 0 0 -.35278 151.66 61.558)" d="m0 0h-36.341v23.649h24.166c4.493 0 8.139 3.644 8.139 8.139s-3.646 8.139-8.139 8.139h-24.166v21.48h36.341c4.495 0 8.138 3.645 8.138 8.139 0 4.496-3.643 8.141-8.138 8.141h-45.656c-4.495 0-8.139-3.645-8.139-8.141v-77.684c0-4.497 3.644-8.14 8.139-8.14h45.656c4.495 0 8.138 3.643 8.138 8.14 0 4.494-3.643 8.138-8.138 8.138" clip-path="url(#clipPath190)"/>
  </g>
  <g fill="#3c9f00">
   <path transform="matrix(.35278 0 0 -.35278 115.41 52.864)" d="m0 0-11.402-13.561 21.428-25.485c1.726-2.054 4.197-3.113 6.683-3.113 1.983 0 3.977 0.671 5.612 2.046 3.69 3.104 4.166 8.608 1.065 12.297z" clip-path="url(#clipPath192)"/>
   <path transform="matrix(.35278 0 0 -.35278 123.66 38.759)" d="m0 0c3.101 3.688 2.625 9.193-1.063 12.294-1.637 1.376-3.631 2.048-5.613 2.048-2.487 0-4.958-1.058-6.684-3.113l-21.428-25.486 11.402-13.559z" clip-path="url(#clipPath194)"/>
   <path transform="matrix(.35278 0 0 -.35278 102.44 37.453)" d="m0 0c-0.032 0.038-0.052 0.081-0.082 0.12l-6.229 7.407c-1.726 2.055-4.197 3.113-6.683 3.113-1.984 0-3.977-0.672-5.611-2.048-3.691-3.101-4.165-8.606-1.066-12.294l28.504-33.902-28.504-33.899c-3.099-3.69-2.625-9.193 1.066-12.297 1.634-1.375 3.627-2.046 5.611-2.046 2.486 0 4.957 1.059 6.683 3.111l6.229 7.408c0.03 0.041 0.05 0.083 0.082 0.122l31.615 37.601z" clip-path="url(#clipPath196)"/>
  </g>
  <path transform="matrix(.35278 0 0 -.35278 88.395 34.224)" d="m0 0c-4 2.689-9.422 1.627-12.11-2.375l-15.993-23.787-8.727-12.984-8.727 12.984-15.992 23.787c-2.688 4.002-8.11 5.064-12.11 2.375-4.002-2.69-5.064-8.111-2.376-12.111l30.478-45.339v-28.844c0-4.821 3.907-8.728 8.727-8.728s8.727 3.907 8.727 8.728v28.844l30.477 45.339c2.69 4 1.627 9.421-2.374 12.111" clip-path="url(#clipPath198)"/>
 </g>
</svg>
